<svg xmlns="http://www.w3.org/2000/svg" version="1.1" xmlns:xlink="http://www.w3.org/1999/xlink" xmlns:svgjs="http://svgjs.dev/svgjs" width="100%" height="100%" viewBox="0 0 1000 600"><rect width="1000" height="600" x="0" y="0" fill="#00030c"/><g><rect width="333.3333333333333" height="333.3333333333333" rx="13.333333333333334" ry="13.333333333333334" y="316.33064710659414" fill="#f5f5f5" transform="matrix(0.4250133352776218,0,0,0.42501333527762175,0,94.7196990901268)" x="294.1084289550781"/><path d="M394.75682355726707 426.31942080797614L342.52904508166193 426.31942080797614L342.52904508166193 410.57284340240983L457.3193122555731 410.57284340240983L457.3193122555731 426.31942080797614L404.8633225132206 426.31942080797614L408.9711253146727 422.08121156838274L408.9711253146727 557.9973217211904L390.649020755815 557.9973217211904L390.649020755815 422.08121156838274L394.75682355726707 426.31942080797614ZM577.6192514409558 557.9973217211904L473.62011702324014 557.9973217211904L473.62011702324014 536.1542433325166Q473.62011702324014 523.3744123946656 477.7931230437629 514.8001890868727Q481.96612906428567 506.2259657790799 489.5297024764832 500.6184889390024Q497.09327588868064 494.97841048938966 507.42798611138153 490.8706076879376L507.42798611138153 490.8706076879376L536.5412234264348 479.3622395219646Q547.8213803256604 474.7980141870179 553.4288571657378 467.62566008924443Q559.0689356153507 460.4533059914709 559.0689356153507 449.7925796734167L559.0689356153507 449.7925796734167Q559.0689356153507 438.5124227741911 551.2771509364059 431.37267028595295Q543.4527646479256 424.2003161881795 529.4992757668026 424.2003161881795L529.4992757668026 424.2003161881795Q515.6435917142858 424.2003161881795 506.77595392067485 430.13380912361026Q497.9409177365993 436.067302059041 496.63685335518596 447.9016863203673L496.63685335518596 447.9016863203673L476.22824578606685 447.9016863203673Q477.0432860244502 435.1218553825164 483.7918191982643 426.1890143698348Q490.5403523720785 417.28877496668866 502.14652536665744 412.62674480313586Q513.7852999707717 407.99731624911846 529.2710645000553 407.99731624911846L529.2710645000553 407.99731624911846Q543.4527646479256 407.99731624911846 554.7329215471511 413.5069882605899Q566.0130784463768 419.0492618815967 572.5007987439083 428.7319399135909Q579.021120650975 438.4146179455851 579.021120650975 450.9662376166887L579.021120650975 450.9662376166887Q579.021120650975 462.3441993445203 574.815513020917 470.7880162141718Q570.5773037813235 479.2318330838233 562.7855191023787 485.3609356764661Q554.9611328138985 491.4574366595736 544.3004064958443 495.793450727773L544.3004064958443 495.793450727773L514.4699337710138 507.7582414272406Q503.2223784813234 512.09425549544 497.58230003171064 518.2233580880828Q491.9422215820979 524.3198590711903 491.9422215820979 534.0677403222552L491.9422215820979 534.0677403222552L491.9422215820979 541.1096879818873L577.6192514409558 541.1096879818873L577.6192514409558 557.9973217211904Z " fill="#00030c" transform="matrix(0.4250133352776218,0,0,0.42501333527762175,0,94.7196990901268)"/><path d="M762.0445553380349 425.9832352573757L710.775085426328 425.9832352573757L710.775085426328 410.52558608923937L823.4591076230321 410.52558608923937L823.4591076230321 425.9832352573757L771.9656138103378 425.9832352573757L775.9980440281124 421.8227913818939L775.9980440281124 555.2450261271536L758.0121251202602 555.2450261271536L758.0121251202602 421.8227913818939L762.0445553380349 425.9832352573757ZM865.9596419818004 555.2450261271536L848.0057264883749 555.2450261271536L848.0057264883749 410.52558608923937L898.4751110394122 410.52558608923937Q923.2457538057424 410.52558608923937 935.9511093331755 422.33484601272244Q948.6884682750352 434.1441059362055 948.6884682750352 453.41016142112903L948.6884682750352 453.41016142112903Q948.6884682750352 472.42018959063836 935.9511093331755 484.22944951412137Q923.2457538057424 496.03870943760444 898.4751110394122 496.03870943760444L898.4751110394122 496.03870943760444L865.9596419818004 496.03870943760444L865.9596419818004 555.2450261271536ZM952.3688609341153 555.2450261271536L929.1023786458438 555.2450261271536L887.6259535487327 489.5740197233942L907.2120431779241 489.5740197233942L952.3688609341153 555.2450261271536ZM865.9596419818004 425.9832352573757L865.9596419818004 483.3653573245982L897.0669608046337 483.3653573245982Q913.3246953334396 483.3653573245982 921.8056001565373 475.3325003034756Q930.2545015652081 467.3316466967798 930.2545015652081 454.56228434049325L930.2545015652081 454.56228434049325Q930.2545015652081 441.4088810110853 922.1256343008051 433.6960581342305Q914.0287704508289 425.9832352573757 898.4751110394122 425.9832352573757L898.4751110394122 425.9832352573757L865.9596419818004 425.9832352573757ZM1007.0946996039148 555.2450261271536L989.1407841104893 555.2450261271536L989.1407841104893 410.52558608923937L1007.0946996039148 410.52558608923937L1007.0946996039148 555.2450261271536ZM1104.8011238488843 557.997319767857L1104.8011238488843 557.997319767857Q1086.8472083554589 557.997319767857 1072.669695764394 549.7084354313201Q1058.4921831733288 541.4195510947832 1050.2993090800724 524.777775592856Q1042.1384384012426 508.1360000909285 1042.1384384012426 483.10933000918396L1042.1384384012426 483.10933000918396Q1042.1384384012426 457.7626257831716 1050.2993090800724 441.12085028124426Q1058.4921831733288 424.47907477931693 1072.669695764394 416.25419727163364Q1086.8472083554589 407.99731634952354 1104.8011238488843 407.99731634952354L1104.8011238488843 407.99731634952354Q1122.7870427567364 407.99731634952354 1136.9645553478015 416.2862006860604Q1151.1100645244398 424.60708843702406 1159.3029386176963 441.31287076780495Q1167.4958127109528 458.01865309858584 1167.4958127109528 483.10933000918396L1167.4958127109528 483.10933000918396Q1167.4958127109528 508.360023991916 1159.3029386176963 525.0017994938434Q1151.1100645244398 541.6435749957707 1136.9645553478015 549.8364490890272Q1122.7870427567364 557.997319767857 1104.8011238488843 557.997319767857ZM1104.8011238488843 541.4195510947832L1104.8011238488843 541.4195510947832Q1125.1872988387454 541.4195510947832 1136.9965587622285 526.5699668007558Q1148.8058186857115 511.6883790923015 1148.8058186857115 482.88530610819646L1148.8058186857115 482.88530610819646Q1148.8058186857115 454.65829458377357 1136.9965587622285 439.39266590219796Q1125.1872988387454 424.1270372206223 1104.8011238488843 424.1270372206223L1104.8011238488843 424.1270372206223Q1084.6389727600108 424.1270372206223 1072.7337025932475 439.4566727310515Q1060.7964290120572 454.78630824148075 1060.7964290120572 483.10933000918396L1060.7964290120572 483.10933000918396Q1060.7964290120572 511.8163927500086 1072.7337025932475 526.6019702151825Q1084.6389727600108 541.4195510947832 1104.8011238488843 541.4195510947832ZM1257.105373105946 555.2450261271536L1257.105373105946 410.52558608923937L1299.5098972214341 410.52558608923937Q1321.400232689354 410.52558608923937 1337.5299535604527 419.4545387143119Q1353.6596744315514 428.3834913393845 1362.5246202277706 444.6412258681904Q1371.4215694384163 460.89896039699636 1371.4215694384163 482.88530610819646L1371.4215694384163 482.88530610819646Q1371.4215694384163 504.6796313328359 1362.5246202277706 520.9053624472151Q1353.6596744315514 537.163096976021 1337.5299535604527 546.1880598443739Q1321.400232689354 555.2450261271536 1299.5098972214341 555.2450261271536L1299.5098972214341 555.2450261271536L1257.105373105946 555.2450261271536ZM1299.5098972214341 426.4312830593507L1275.0912920137985 426.4312830593507L1275.0912920137985 539.5633530580297L1299.5098972214341 539.5633530580297Q1315.8636419935203 539.5633530580297 1327.6729019170034 532.2025677398697Q1339.4821618404865 524.8417824217095 1345.8828447258431 511.97640982214256Q1352.2835276111998 499.1430406370024 1352.2835276111998 482.88530610819646L1352.2835276111998 482.88530610819646Q1352.2835276111998 466.5315613361102 1345.8828447258431 453.7942023942504Q1339.4821618404865 441.0568434523907 1327.6729019170034 433.7600649630841Q1315.8636419935203 426.4312830593507 1299.5098972214341 426.4312830593507L1299.5098972214341 426.4312830593507ZM1498.1550905684783 555.2450261271536L1408.961574561033 555.2450261271536L1408.961574561033 410.52558608923937L1498.1550905684783 410.52558608923937L1498.1550905684783 425.9832352573757L1426.9474934688853 425.9832352573757L1426.9474934688853 474.5964217716596L1493.9946466929962 474.5964217716596L1493.9946466929962 490.02206752536915L1426.9474934688853 490.02206752536915L1426.9474934688853 539.5633530580297L1498.1550905684783 539.5633530580297L1498.1550905684783 555.2450261271536ZM1593.4292553170123 555.2450261271536L1593.4292553170123 410.52558608923937L1635.8337794325 410.52558608923937Q1657.7241149004199 410.52558608923937 1673.8538357715186 419.4545387143119Q1689.9835566426173 428.3834913393845 1698.8485024388365 444.6412258681904Q1707.7134482350555 460.89896039699636 1707.7134482350555 482.88530610819646L1707.7134482350555 482.88530610819646Q1707.7134482350555 504.6796313328359 1698.8485024388365 520.9053624472151Q1689.9835566426173 537.163096976021 1673.8538357715186 546.1880598443739Q1657.7241149004199 555.2450261271536 1635.8337794325 555.2450261271536L1635.8337794325 555.2450261271536L1593.4292553170123 555.2450261271536ZM1635.8337794325 426.4312830593507L1611.3831708104374 426.4312830593507L1611.3831708104374 539.5633530580297L1635.8337794325 539.5633530580297Q1652.1875242045862 539.5633530580297 1663.9967841280693 532.2025677398697Q1675.8060440515526 524.8417824217095 1682.206726936909 511.97640982214256Q1688.575406407839 499.1430406370024 1688.575406407839 482.88530610819646L1688.575406407839 482.88530610819646Q1688.575406407839 466.5315613361102 1682.206726936909 453.7942023942504Q1675.8060440515526 441.0568434523907 1663.9967841280693 433.7600649630841Q1652.1875242045862 426.4312830593507 1635.8337794325 426.4312830593507L1635.8337794325 426.4312830593507ZM1796.6509369270864 557.997319767857L1796.6509369270864 557.997319767857Q1778.697021433661 557.997319767857 1764.519508842596 549.7084354313201Q1750.3419962515306 541.4195510947832 1742.149122158274 524.777775592856Q1733.9882514794442 508.1360000909285 1733.9882514794442 483.10933000918396L1733.9882514794442 483.10933000918396Q1733.9882514794442 457.7626257831716 1742.149122158274 441.12085028124426Q1750.3419962515306 424.47907477931693 1764.519508842596 416.25419727163364Q1778.697021433661 407.99731634952354 1796.6509369270864 407.99731634952354L1796.6509369270864 407.99731634952354Q1814.6368558349384 407.99731634952354 1828.8143684260033 416.2862006860604Q1842.9598776026417 424.60708843702406 1851.1527516958984 441.31287076780495Q1859.3456257891546 458.01865309858584 1859.3456257891546 483.10933000918396L1859.3456257891546 483.10933000918396Q1859.3456257891546 508.360023991916 1851.1527516958984 525.0017994938434Q1842.9598776026417 541.6435749957707 1828.8143684260033 549.8364490890272Q1814.6368558349384 557.997319767857 1796.6509369270864 557.997319767857ZM1796.6509369270864 541.4195510947832L1796.6509369270864 541.4195510947832Q1817.0371119169474 541.4195510947832 1828.8463718404303 526.5699668007558Q1840.6556317639136 511.6883790923015 1840.6556317639136 482.88530610819646L1840.6556317639136 482.88530610819646Q1840.6556317639136 454.65829458377357 1828.8463718404303 439.39266590219796Q1817.0371119169474 424.1270372206223 1796.6509369270864 424.1270372206223L1796.6509369270864 424.1270372206223Q1776.4887858382128 424.1270372206223 1764.5835156714495 439.4566727310515Q1752.6462420902592 454.78630824148075 1752.6462420902592 483.10933000918396L1752.6462420902592 483.10933000918396Q1752.6462420902592 511.8163927500086 1764.5835156714495 526.6019702151825Q1776.4887858382128 541.4195510947832 1796.6509369270864 541.4195510947832ZM1912.2152664222006 555.2450261271536L1894.2293475143485 555.2450261271536L1894.2293475143485 410.52558608923937L1912.2152664222006 410.52558608923937L1912.2152664222006 555.2450261271536ZM2005.089175088726 557.997319767857L2005.089175088726 557.997319767857Q1990.5596249389662 557.997319767857 1978.4623342856423 552.7807632162912Q1966.365043632318 547.5322032502988 1959.0042583141578 537.2591072193013Q1951.611469581571 527.0180146027308 1951.3874456805836 511.912402993289L1951.3874456805836 511.912402993289L1968.893313372034 511.912402993289Q1968.893313372034 522.0574853665793 1973.8538426081857 528.5861819096431Q1978.8143718443368 535.0828750382801 1986.9752425231666 538.2512130665316Q1995.1681166164233 541.4195510947832 2004.8331477733116 541.4195510947832L2004.8331477733116 541.4195510947832Q2015.3302677052964 541.4195510947832 2023.0430905821515 538.0911959943977Q2030.7559134590063 534.7308374795855 2034.9803641633414 529.2582536126056Q2039.1728114532505 523.7856697456256 2039.1728114532505 517.224969788135L2039.1728114532505 517.224969788135Q2039.1728114532505 508.0079864332214 2033.5402105141363 502.311378665254Q2027.8756061605957 496.6147708972866 2016.8344281833554 493.0303884814868L2016.8344281833554 493.0303884814868L1991.2637000563557 484.0374290275607Q1973.2777811485037 477.60474272777725 1964.06079779359 469.2838549768136Q1954.8438144386762 460.9949706402767 1954.8438144386762 446.0173726885421L1954.8438144386762 446.0173726885421Q1954.8438144386762 429.2155801144809 1967.805197281523 418.5904465247888Q1980.7665801243709 407.99731634952354 2004.609123872324 407.99731634952354L2004.609123872324 407.99731634952354Q2026.7234832412316 407.99731634952354 2039.1728114532505 418.2064055516674Q2051.622139665269 428.3834913393845 2053.478337702022 445.56932488656713L2053.478337702022 445.56932488656713L2035.7164426951579 445.56932488656713Q2033.9882583161113 435.5522561709839 2026.3394422681101 429.9516586462969Q2018.6586228056824 424.3510611216098 2004.609123872324 424.3510611216098L2004.609123872324 424.3510611216098Q1990.3356010379787 424.3510611216098 1982.36675084571 430.6877371781129Q1974.4299040678677 437.02441323461596 1974.4299040678677 446.72144780593135L1974.4299040678677 446.72144780593135Q1974.4299040678677 454.65829458377357 1979.4544401328724 459.33079309008394Q1984.446972783451 464.0032915963943 1995.1681166164233 467.6836842554744L1995.1681166164233 467.6836842554744L2025.1233125198926 478.0527905297522Q2040.676971931309 483.2373436668911 2049.733938214089 492.58234067951184Q2058.7589010824413 501.8953342777058 2058.7589010824413 516.77692198616L2058.7589010824413 516.77692198616Q2058.7589010824413 528.2981511798021 2052.614245512499 537.611144777996Q2046.4375865281302 546.9561417906167 2034.4683095325133 552.4927324864502Q2022.4670291224695 557.997319767857 2005.089175088726 557.997319767857Z " fill="#f5f5f5" transform="matrix(0.4250133352776218,0,0,0.42501333527762175,0,94.7196990901268)"/></g></svg>